REM DIRINDEX 1\2\6,1\2\7,1\2\8,1\3\9,1\3\10,1\3\11,1\4\12,1\4\13,1\4\14,1\5\15,1\5\16,1\5\17,1\5\18
REM DIRNAME folder01,folder02,folder03,folder04,folder05,folder06,folder07,folder08,folder09,folder10,folder11,folder12,folder13,folder14,folder15,folder16,folder17,folder18
TITLE ""
FILE "2Q_j_1611-1624.mp3" MP3
  TRACK 01 AUDIO
    TITLE "6:cjc019_1296"
    INDEX 01 00:00:00
  TRACK 02 AUDIO
    TITLE "0:"
    INDEX 01 00:01:38
  TRACK 03 AUDIO
    TITLE "7:cjc019_1297"
    INDEX 01 00:02:18
  TRACK 04 AUDIO
    TITLE "0:"
    INDEX 01 00:04:23
  TRACK 05 AUDIO
    TITLE "8:cjc019_1298"
    INDEX 01 00:05:07
  TRACK 06 AUDIO
    TITLE "0:"
    INDEX 01 00:08:42
  TRACK 07 AUDIO
    TITLE "6:cjc019_1299"
    INDEX 01 00:09:26
  TRACK 08 AUDIO
    TITLE "0:"
    INDEX 01 00:11:23
  TRACK 09 AUDIO
    TITLE "7:cjc019_1300"
    INDEX 01 00:12:01
  TRACK 10 AUDIO
    TITLE "0:"
    INDEX 01 00:13:33
  TRACK 11 AUDIO
    TITLE "8:cjc019_1301"
    INDEX 01 00:14:11
  TRACK 12 AUDIO
    TITLE "0:"
    INDEX 01 00:17:08
  TRACK 13 AUDIO
    TITLE "6:cjc019_1302"
    INDEX 01 00:17:63
  TRACK 14 AUDIO
    TITLE "0:"
    INDEX 01 00:19:48
  TRACK 15 AUDIO
    TITLE "7:cjc019_1303"
    INDEX 01 00:20:26
  TRACK 16 AUDIO
    TITLE "0:"
    INDEX 01 00:24:24
  TRACK 17 AUDIO
    TITLE "8:cjc019_1304"
    INDEX 01 00:25:01
  TRACK 18 AUDIO
    TITLE "0:"
    INDEX 01 00:28:27
  TRACK 19 AUDIO
    TITLE "6:cjc019_1305"
    INDEX 01 00:29:05
  TRACK 20 AUDIO
    TITLE "0:"
    INDEX 01 00:30:57
  TRACK 21 AUDIO
    TITLE "7:cjc019_1306"
    INDEX 01 00:31:47
  TRACK 22 AUDIO
    TITLE "0:"
    INDEX 01 00:33:54
  TRACK 23 AUDIO
    TITLE "8:cjc019_1307"
    INDEX 01 00:34:34
  TRACK 24 AUDIO
    TITLE "0:"
    INDEX 01 00:37:50
  TRACK 25 AUDIO
    TITLE "6:cjc019_1308"
    INDEX 01 00:38:24
  TRACK 26 AUDIO
    TITLE "0:"
    INDEX 01 00:40:40
  TRACK 27 AUDIO
    TITLE "7:cjc019_1309"
    INDEX 01 00:41:24
  TRACK 28 AUDIO
    TITLE "0:"
    INDEX 01 00:43:19
  TRACK 29 AUDIO
    TITLE "8:cjc019_1310"
    INDEX 01 00:43:70
  TRACK 30 AUDIO
    TITLE "0:"
    INDEX 01 00:48:69
  TRACK 31 AUDIO
    TITLE "6:cjc019_1311"
    INDEX 01 00:49:47
  TRACK 32 AUDIO
    TITLE "0:"
    INDEX 01 00:51:11
  TRACK 33 AUDIO
    TITLE "7:cjc019_1312"
    INDEX 01 00:51:63
  TRACK 34 AUDIO
    TITLE "0:"
    INDEX 01 00:53:02
  TRACK 35 AUDIO
    TITLE "8:cjc019_1313"
    INDEX 01 00:53:60
  TRACK 36 AUDIO
    TITLE "0:"
    INDEX 01 00:56:43
  TRACK 37 AUDIO
    TITLE "6:cjc019_1314"
    INDEX 01 00:57:21
  TRACK 38 AUDIO
    TITLE "0:"
    INDEX 01 00:59:12
  TRACK 39 AUDIO
    TITLE "7:cjc019_1315"
    INDEX 01 01:00:00
  TRACK 40 AUDIO
    TITLE "0:"
    INDEX 01 01:03:61
  TRACK 41 AUDIO
    TITLE "8:cjc019_1316"
    INDEX 01 01:04:31
  TRACK 42 AUDIO
    TITLE "0:"
    INDEX 01 01:08:03
  TRACK 43 AUDIO
    TITLE "6:cjc019_1317"
    INDEX 01 01:08:58
  TRACK 44 AUDIO
    TITLE "0:"
    INDEX 01 01:10:43
  TRACK 45 AUDIO
    TITLE "7:cjc019_1318"
    INDEX 01 01:11:23
  TRACK 46 AUDIO
    TITLE "0:"
    INDEX 01 01:13:12
  TRACK 47 AUDIO
    TITLE "8:cjc019_1319"
    INDEX 01 01:13:69
  TRACK 48 AUDIO
    TITLE "0:"
    INDEX 01 01:17:65
  TRACK 49 AUDIO
    TITLE "6:cjc019_1320"
    INDEX 01 01:18:41
  TRACK 50 AUDIO
    TITLE "0:"
    INDEX 01 01:19:68
  TRACK 51 AUDIO
    TITLE "7:cjc019_1321"
    INDEX 01 01:20:51
  TRACK 52 AUDIO
    TITLE "0:"
    INDEX 01 01:22:03
  TRACK 53 AUDIO
    TITLE "8:cjc019_1322"
    INDEX 01 01:22:56
  TRACK 54 AUDIO
    TITLE "0:"
    INDEX 01 01:26:11
  TRACK 55 AUDIO
    TITLE "6:cjc019_1323"
    INDEX 01 01:26:70
  TRACK 56 AUDIO
    TITLE "0:"
    INDEX 01 01:29:03
  TRACK 57 AUDIO
    TITLE "7:cjc019_1324"
    INDEX 01 01:29:62
  TRACK 58 AUDIO
    TITLE "0:"
    INDEX 01 01:31:57
  TRACK 59 AUDIO
    TITLE "8:cjc019_1325"
    INDEX 01 01:32:39
  TRACK 60 AUDIO
    TITLE "0:"
    INDEX 01 01:36:39
  TRACK 61 AUDIO
    TITLE "6:cjc019_1326"
    INDEX 01 01:37:17
  TRACK 62 AUDIO
    TITLE "0:"
    INDEX 01 01:39:14
  TRACK 63 AUDIO
    TITLE "7:cjc019_1327"
    INDEX 01 01:39:72
  TRACK 64 AUDIO
    TITLE "0:"
    INDEX 01 01:43:37
  TRACK 65 AUDIO
    TITLE "8:cjc019_1328"
    INDEX 01 01:44:17
  TRACK 66 AUDIO
    TITLE "0:"
    INDEX 01 01:49:02
  TRACK 67 AUDIO
    TITLE "6:cjc019_1329"
    INDEX 01 01:49:57
  TRACK 68 AUDIO
    TITLE "0:"
    INDEX 01 01:51:17
  TRACK 69 AUDIO
    TITLE "7:cjc019_1330"
    INDEX 01 01:52:02
  TRACK 70 AUDIO
    TITLE "0:"
    INDEX 01 01:55:28
  TRACK 71 AUDIO
    TITLE "8:cjc019_1331"
    INDEX 01 01:56:06
  TRACK 72 AUDIO
    TITLE "0:"
    INDEX 01 01:59:26
  TRACK 73 AUDIO
    TITLE "6:cjc019_1332"
    INDEX 01 02:00:08
  TRACK 74 AUDIO
    TITLE "0:"
    INDEX 01 02:01:74
  TRACK 75 AUDIO
    TITLE "7:cjc019_1333"
    INDEX 01 02:02:56
  TRACK 76 AUDIO
    TITLE "0:"
    INDEX 01 02:04:74
  TRACK 77 AUDIO
    TITLE "8:cjc019_1334"
    INDEX 01 02:05:50
  TRACK 78 AUDIO
    TITLE "0:"
    INDEX 01 02:09:60
  TRACK 79 AUDIO
    TITLE "6:cjc019_1335"
    INDEX 01 02:10:42
  TRACK 80 AUDIO
    TITLE "0:"
    INDEX 01 02:12:07
  TRACK 81 AUDIO
    TITLE "7:cjc019_1336"
    INDEX 01 02:12:64
  TRACK 82 AUDIO
    TITLE "0:"
    INDEX 01 02:15:13
  TRACK 83 AUDIO
    TITLE "8:cjc019_1337"
    INDEX 01 02:15:64
  TRACK 84 AUDIO
    TITLE "0:"
    INDEX 01 02:19:56
